<svg version="1.1" viewBox="0.0 0.0 1168.8320209973754 733.50656167979" fill="none" stroke="none" stroke-linecap="square" stroke-miterlimit="10" xmlns:xlink="http://www.w3.org/1999/xlink" xmlns="http://www.w3.org/2000/svg"><clipPath id="p.0"><path d="m0 0l1168.832 0l0 733.5066l-1168.832 0l0 -733.5066z" clip-rule="nonzero"/></clipPath><g clip-path="url(#p.0)"><path fill="#000000" fill-opacity="0.0" d="m0 0l1168.832 0l0 733.5066l-1168.832 0z" fill-rule="evenodd"/><path fill="#000000" d="m52.362206 64.41732l57.133858 0l0 337.66928l-57.133858 0z" fill-rule="evenodd"/><path fill="#000000" d="m52.362206 64.41732l180.37796 0l0 57.133858l-180.37796 0z" fill-rule="evenodd"/><path fill="#000000" d="m52.362206 178.68504l164.78741 0l0 57.13385l-164.78741 0z" fill-rule="evenodd"/><path fill="#000000" d="m173.51001 64.41732l57.13385 57.133858l100.787415 0l57.13385 -57.133858z" fill-rule="evenodd"/><path fill="#000000" d="m52.362206 689.8714l57.133858 -57.13385l0 -331.02365l-57.133858 -57.13385z" fill-rule="evenodd"/><path fill="#000000" d="m274.28348 459.6299l57.13385 -57.13385l0 -25.35434l-57.13385 -57.13385z" fill-rule="evenodd"/><path fill="#000000" d="m274.28348 178.68504l57.13385 0l0 57.13385l-57.13385 0z" fill-rule="evenodd"/><path fill="#000000" d="m274.28348 264.38583l57.13385 0l0 126.2677l-57.13385 0z" fill-rule="evenodd"/><path fill="#000000" d="m388.57825 121.55118l57.13385 -57.133858l100.787415 0l57.13385 57.133858z" fill-rule="evenodd"/><path fill="#000000" d="m445.69897 279.47244l-57.13385 -57.133865l0 -100.7874l57.13385 -57.133858z" fill-rule="evenodd"/><path fill="#000000" d="m388.5643 204.68504l57.13385 0l0 197.38582l-57.13385 0z" fill-rule="evenodd"/><path fill="#000000" d="m452.57742 64.41732l215.05515 0l0 57.133858l-215.05515 0z" fill-rule="evenodd"/><path fill="#000000" d="m388.57742 344.95276l279.05515 0l0 57.13385l-279.05515 0z" fill-rule="evenodd"/><path fill="#000000" d="m610.49866 235.8189l57.13391 0l0 166.26772l-57.13391 0z" fill-rule="evenodd"/><path fill="#000000" d="m517.4278 204.68504l150.20477 0l0 57.133865l-150.20477 0z" fill-rule="evenodd"/><path fill="#000000" d="m840.11884 64.41732l245.60626 0l0 57.133858l-245.60626 0z" fill-rule="evenodd"/><path fill="#000000" d="m1060.9685 64.41732l57.13391 0l0 523.6221l-57.13391 0z" fill-rule="evenodd"/><path fill="#000000" d="m1118.1024 689.8714l-57.13391 -57.13385l0 -331.02365l57.13391 -57.13385z" fill-rule="evenodd"/><path fill="#000000" d="m781.9135 64.41732l57.13385 57.133858l100.787415 0l57.13385 -57.133858z" fill-rule="evenodd"/><path fill="#000000" d="m724.77954 145.00787l57.13385 0l0 257.07086l-57.13385 0z" fill-rule="evenodd"/><path fill="#000000" d="m946.7008 150.1181l57.13385 0l0 251.9685l-57.13385 0z" fill-rule="evenodd"/><path fill="#000000" d="m724.77954 204.68504l279.0551 0l0 57.133865l-279.0551 0z" fill-rule="evenodd"/><path fill="#000000" d="m1003.83466 459.6299l-57.13385 -57.13385l0 -25.35434l57.13385 -57.13385z" fill-rule="evenodd"/><path fill="#000000" d="m725.3092 279.47244l57.13385 -57.133865l0 -100.7874l-57.13385 -57.133858z" fill-rule="evenodd"/></g></svg>